<svg width="60" height="60" viewBox="0 0 60 60" fill="none" xmlns="http://www.w3.org/2000/svg">
<path d="M30 55C43.8071 55 55 43.8071 55 30C55 16.1929 43.8071 5 30 5C16.1929 5 5 16.1929 5 30C5 43.8071 16.1929 55 30 55Z" stroke="white" stroke-width="5" stroke-linecap="round" stroke-linejoin="round"/>
<path d="M22.7251 22.5004C23.3129 20.8296 24.473 19.4207 26 18.5233C27.527 17.6258 29.3223 17.2978 31.068 17.5972C32.8137 17.8967 34.3971 18.8043 35.5378 20.1593C36.6784 21.5143 37.3027 23.2293 37.3001 25.0004C37.3001 30.0004 29.8001 32.5004 29.8001 32.5004" stroke="white" stroke-width="5" stroke-linecap="round" stroke-linejoin="round"/>
<path d="M30 42.5H30.025" stroke="white" stroke-width="5" stroke-linecap="round" stroke-linejoin="round"/>
</svg>
