<svg width="60" height="60" viewBox="0 0 60 60" fill="none" xmlns="http://www.w3.org/2000/svg">
<path d="M7.5 15H12.5H52.5" stroke="white" stroke-opacity="0.6" stroke-width="5" stroke-linecap="round" stroke-linejoin="round"/>
<path d="M47.5 15V50C47.5 51.3261 46.9732 52.5979 46.0355 53.5355C45.0979 54.4732 43.8261 55 42.5 55H17.5C16.1739 55 14.9021 54.4732 13.9645 53.5355C13.0268 52.5979 12.5 51.3261 12.5 50V15M20 15V10C20 8.67392 20.5268 7.40215 21.4645 6.46447C22.4021 5.52678 23.6739 5 25 5H35C36.3261 5 37.5979 5.52678 38.5355 6.46447C39.4732 7.40215 40 8.67392 40 10V15" stroke="white" stroke-opacity="0.6" stroke-width="5" stroke-linecap="round" stroke-linejoin="round"/>
<path d="M25 27.5V42.5" stroke="white" stroke-opacity="0.6" stroke-width="5" stroke-linecap="round" stroke-linejoin="round"/>
<path d="M35 27.5V42.5" stroke="white" stroke-opacity="0.6" stroke-width="5" stroke-linecap="round" stroke-linejoin="round"/>
</svg>
