<?xml version="1.0" encoding="UTF-8" standalone="no"?>
<!-- Created with Inkscape (http://www.inkscape.org/) -->

<svg
   version="1.1"
   id="svg2"
   width="2000"
   height="1200"
   viewBox="0 0 2000 1200"
   xmlns="http://www.w3.org/2000/svg"
   xmlns:svg="http://www.w3.org/2000/svg">
  <defs
     id="defs6" />
  <g
     id="g8">
    <g
       id="g3773"
       transform="translate(2105.6054,535.0603)" />
    <path
       style="fill:#54cb9c;fill-opacity:1;stroke-width:2.1591"
       d=""
       id="path2695" />
    <path
       style="fill:#9be694;fill-opacity:1;stroke-width:1.07955"
       d=""
       id="path3050" />
    <path
       style="fill:#9be694;fill-opacity:1;stroke-width:2.1591"
       d="m -0.44449621,1179.2192 0.33838834,-22.2554 33.14090687,-17.0223 C 246.4918,1030.3029 460.59217,981.25586 691.67668,974.32492 c 125.01991,-3.74974 241.26295,11.22669 350.64242,44.73438 71.6477,21.9489 106.6726,29.3112 155.258,29.3218 50.1656,0.011 73.7021,-7.3182 105.8975,-28.519 17.6315,-11.6105 42.6119,-33.90731 55.4384,-52.93676 10.3475,-15.35147 28.7471,-51.50121 37.7309,-74.11666 44.425,-111.83353 125.0632,-195.80565 220.4703,-220.14505 31.9469,-8.14998 52.8461,-15.68846 94.7101,-5.70359 29.3773,7.0067 56.3043,14.23132 77.7199,13.49792 46.9276,-1.60708 58.5656,-12.92594 97.6562,-89.61873 15.2247,-29.86969 18.8557,-37.36873 27.6967,-45.3176 15.2408,-13.70274 27.5121,-23.4737 54.6828,-23.39785 l 30.7928,-0.79842 0.3536,130.10492 -0.7071,128.33715 -7.593,26.16945 c -9.1263,31.45424 -22.5054,65.79134 -40.3782,101.95719 l -18.0137,32.18145 -17.9744,-0.20877 c -24.6234,-0.286 -58.7086,-11.80977 -88.3778,-26.534 -53.2219,-26.41295 -103.0958,-41.16525 -153.7409,-45.4753 -16.7041,-1.42158 -59.4944,1.9951 -67.5673,5.39502 -2.375,1.00025 -10.6336,3.9897 -18.3524,6.64326 -13.7473,4.72602 -49.6264,22.29613 -60.6018,29.67685 -12.3099,8.27823 -26.9961,19.29048 -36.206,27.14848 -14.4696,12.34574 -62.6157,63.35544 -73.747,78.13314 -11.308,15.0124 -38.5541,48.6881 -47.8385,55.1849 -11.5581,11.8077 -10.7536,10.8637 -20.8697,18.722 -20.5146,14.774 -3.8164,5.847 -12.6486,9.8148 -5.643,3.668 -24.6148,13.7683 -31.1342,13.8766 -16.5254,0 -79.9369,8.3533 -112.0401,13.5453 -71.0302,11.4878 -150.972,36.1265 -209.73542,63.845 l -19.40588,10.4612 -482.64973,-0.2652 -481.58906622,0.442 z"
       id="path3960" />
    <path
       style="fill:#9be694;fill-opacity:1;stroke-width:2.1591"
       d=""
       id="path3962" />
    <path
       style="fill:#9be694;fill-opacity:1;stroke-width:2.1591"
       d="m 110.06118,655.16102 c -25.9414,-2.6758 -69.3726,-12.0635 -90.375,-19.3009 l -19.90509986,-7.6154 -0.037,-75.2872 0.31648157,-75.19878 19.44251829,-4.72116 c 10.372342,-2.51868 28.0994,-7.79767 39.0041,-11.88197 14.8951,-6.76096 42.6151,-21.70515 44.1116,-22.52334 16.2128,-9.01543 27.1393,-9.55556 38.5082,-6.73822 12.4653,3.08902 66.8095,16.102 86.5289,18.6413 41.5116,5.34558 79.95123,-6.09787 107.76117,-21.89945 15.22218,-10.22163 24.04649,-14.91043 34.33409,-25.33585 12.95329,-13.2461 30.45311,-40.32191 45.61346,-72.15112 32.90176,-69.07745 73.02576,-148.66575 83.24537,-163.44891 34.35776,-49.70027 64.14457,-61.90872 155.41157,-46.59922 34.60149,5.80419 53.19636,9.47175 79.51455,8.72171 28.62414,-0.81575 29.26138,-2.64621 43.57343,-9.26165 8.31256,-3.84229 21.3504,-12.7051 25.94813,-17.10241 10.30087,-9.851841 21.14756,-29.064551 21.14756,-34.794861 0,-3.00558 2.28394,-2.56152 8.00382,-4.4344 15.58653,-5.10355 43.43653,-19.12985 55.83087,-28.86268 6.87764,-5.40075 15.79905,-13.33633 21.22078,-19.78236 l 13.21597,-15.71280994 43.25543,0.12092 44.13052,-0.25409 5.4819,14.76329994 c 16.6932,44.95633 17.7391,66.87805 17.7391,110.937001 0,33.97232 -2.587,44.83087 -7.049,61.71753 -15.6982,59.41081 -47.28607,97.10873 -97.6447,120.96824 -38.41447,18.20044 -82.64978,23.4359 -140.8573,14.89496 -43.07026,-6.39907 -88.80606,-9.54262 -128.27618,-0.877 -39.35512,10.99132 -77.93064,31.66812 -123.1312,70.60956 -26.19983,22.57182 -58.22845,54.49846 -134.35872,132.20254 -66.86039,68.24262 -83.64762,81.27822 -129.15022,103.37402 -44.463,21.591 -110.011,32.2526 -162.5549,26.8327 z"
       id="path3964" />
    <path
       style="fill:#9be694;fill-opacity:1;stroke-width:2.1591"
       d="m 36.1518,430.53787 c -10.085396,-1.20666 -35.81640786,-3.55454 -36.15838616,-3.89652 -0.3419782,-0.34198 -0.05689132,-13.25359 -0.00328154,-28.30542 l -0.0497776,-29.83138 13.0597213,7.12115 c 13.7047,7.47284 89.186014,43.55692 100.130744,47.68368 6.16621,2.32499 6.70399,-0.39642 -0.57491,4.822 -4.44988,3.19023 -55.365679,4.92363 -76.40411,2.40649 z"
       id="path3966" />
    <path
       style="fill:#9be694;fill-opacity:1;stroke-width:2.1591"
       d="m 0.3295523,453.2239 -0.25,-22.38137 19.6535087,2.3942 c 8.593265,1.04684 30.219453,2.11655 47.445083,2.22786 l 33.291576,-0.0413 c -22.552208,12.26462 -31.690851,16.68574 -42.825803,21.13649 -8.584488,3.425 -10.92452,3.90623 -29.202562,9.63089 -12.218362,3.82677 -12.329654,3.88173 -25.1602249,5.55606 -4.6280659,0.60394 -2.9515778,0.24841 -2.9515778,-18.52279 z"
       id="path3968" />
    <path
       style="fill:#9be694;fill-opacity:1;stroke-width:2.1591"
       d="M 826.97488,30.404242 826.7981,0.19566883 870.65896,-0.0454477 c 22.85917,-0.12566385 45.53749,-0.59516352 45.18777,0.37494621 C 913.47173,6.9177008 885.2852,33.3799 872.89524,41.305665 c -9.33875,5.973925 -43.1852,20.456199 -46.3229,20.456199 -0.36197,0 0.49635,-15.326544 0.40254,-31.357622 z"
       id="path3970" />
    <path
       style="fill:#9be694;fill-opacity:1;stroke-width:0.763359"
       d="m 986.6173,1191.291 c 23.1969,-10.2825 37.0173,-14.6627 57.6391,-22.6294 17.4268,-5.6877 33.6098,-12.4741 51.4373,-16.9626 15.7054,-4.9079 25.7027,-7.4884 37.7115,-10.642 38.3285,-9.6173 79.7124,-17.2398 123.2639,-21.4802 12.0136,-1.1697 50.2839,-4.202 47.3727,-3.353 -0.8397,0.2449 -8.0482,3.7972 -8.2581,4.0857 -6.4307,3.2821 -6.0112,3.4044 -10.131,5.299 -4.7001,2.9866 -25.5109,13.7516 -28.3836,14.3109 -12.5911,5.562 -26.1092,13.354 -39.4969,14.6849 -24.4959,8.5785 -49.9116,16.5971 -75.2613,22.575 -23.2118,5.3699 -58.8768,13.166 -78.8869,15.6858 -32.7578,4.125 -52.8882,7.1368 -74.66056,7.1197 l -19.67156,0.072 z"
       id="path3972" />
    <path
       style="fill:#9be694;fill-opacity:1;stroke-width:0.763359"
       d="m 1940.1326,939.35208 c 5.2905,-11.98517 2.6866,-5.51177 10.1513,-18.35368 2.3995,-3.45159 14.4352,-29.52657 21.6505,-47.29134 9.672,-24.83092 12.7165,-29.83402 18.1533,-47.70673 16.5188,-54.97517 9.0418,-28.68197 9.8727,38.33798 0.3683,29.71015 0.036,46.90055 -0.089,55.77543 -4.9589,2.21961 -4.9687,2.2119 -10.0638,4.5112 -19.4058,8.31388 -13.1963,6.52705 -30.3671,11.57777 -1.6247,0.86951 -19.3075,3.92416 -19.3075,3.14937 z"
       id="path3974" />
    <path
       style="fill:#55cb9f;fill-opacity:1;stroke-width:3.05344"
       d="m 81.580173,409.79451 c -18.1533,-8.6952 -44.40174,-18.40676 -56.36355,-26.3791 L 0.53461296,368.91264 0.24129296,184.70439 0.16119296,0.11133157 H 258.61812 c 141.08187,0 261.48357,-0.81983 261.48357,-0.05404 0,0.76579003 -9.9757,16.47690043 -15.228,25.36760043 -5.2523,8.8907 -19.5641,36.31491 -32.8843,62.88724 -21.4658,42.822118 -20.9064,46.217848 -29.5423,49.176528 -20.1813,6.91419 -70.1542,33.67588 -95.1724,51.73678 -33.8639,24.44666 -70.78192,64.89499 -109.87064,117.23232 -33.39471,44.71339 -66.97988,79.89913 -98.33099,103.99412 -10.36862,7.96882 -18.25547,13.19512 -20.65983,14.27571 -2.05705,0.9245 -17.79729,-5.81519 -36.833067,-14.93308 z"
       id="path4252" />
    <path
       style="fill:#55cb9f;fill-opacity:1;stroke-width:1.52672"
       d="m 124.95732,425.3755 c 1.50986,-2.74294 16.45679,-12.82628 24.00045,-19.12399 7.54366,-6.29771 16.18665,-14.23378 19.74679,-17.20358 14.67103,-12.23834 61.87738,-65.34855 71.79367,-81.04511 0.83969,-1.32915 10.83232,-15.80871 17.88464,-25.4789 22.4146,-30.73508 46.34826,-55.51005 70.73727,-75.35372 28.72482,-23.6317 39.65297,-29.27916 45.91129,-32.59753 13.48845,-9.77556 69.2514,-37.65634 69.2514,-34.22094 0,3.07652 -31.34818,57.18699 -45.35533,78.44296 -5.2451,7.95949 -15.04204,22.95499 -20.75027,31.77178 -27.35732,42.25543 -61.84581,82.88431 -91.94441,106.87167 -43.95986,35.03423 -115.02695,63.69972 -153.31198,68.48969 l -8.87905,1.11089 z"
       id="path4254" />
    <path
       style="fill:#55cb9f;fill-opacity:1;stroke-width:1.52672"
       d="m 231.73965,451.17961 c -27.78196,-2.44409 -48.11801,-7.08553 -75.75812,-14.86323 l -19.59099,-5.51275 22.98833,-5.76774 c 46.71172,-11.71992 88.92748,-33.94661 127.68411,-64.94897 15.66377,-12.52984 46.95777,-43.3699 59.49384,-58.83112 25.54431,-31.50478 65.26042,-94.29395 91.06278,-141.68749 4.94196,-9.07732 11.93008,-19.8 13.39028,-21.38374 3.03943,-3.29657 27.2098,-11.33881 54.33133,-18.18262 41.84461,-10.55901 87.58135,-17.22795 166.76807,-26.204893 69.69354,-7.900758 93.23501,-11.117172 123.59356,-19.271271 7.82777,-2.102485 28.08267,-7.935137 28.86176,-7.935137 5.01399,0 -9.08333,23.709083 -20.39596,35.802321 -9.64061,10.30584 -20.07439,17.47492 -37.2261,23.28917 -9.95523,3.37473 -12.93465,4.32743 -43.51145,4.29369 -29.15416,-0.0322 -35.74469,-2.26087 -54.7288,-5.89003 -64.61805,-12.35291 -96.02853,-11.81971 -124.15017,2.10747 -9.82362,4.86513 -16.05452,9.33913 -24.07226,17.28471 -18.60267,18.43525 -29.67238,37.46243 -73.2976,125.98767 -22.13838,44.92366 -42.42704,85.80153 -45.08589,90.83969 -25.17211,47.6975 -64.29211,76.54574 -113.90628,89.71288 -11.78996,3.12895 -45.10472,2.15952 -56.45044,1.16139 z"
       id="path4256" />
    <path
       style="fill:#55cb9f;fill-opacity:1;stroke-width:1.52672"
       d="m 453.47519,131.10703 c 0,-1.65478 56.8889,-111.087035 59.68703,-114.842691 4.564,-6.3931929 3.9712,-7.6889923 11.87881,-16.22065014 L 674.74466,-0.1205247 c 141.76913,-0.15551002 150.95828,-1.4382525 151.99268,1.08076547 1.47885,3.60134293 3.43433,50.02286023 1.93584,57.07321623 -1.33255,6.269504 -5.96915,6.443729 -30.44985,12.527271 -31.71052,7.880179 -53.70757,11.412423 -135.10115,21.004556 -63.82177,7.521313 -86.9356,10.169256 -118.30393,16.201926 -22.82393,4.38943 -59.1912,14.73511 -75.76505,20.39554 -11.67115,3.98603 -15.57801,3.66954 -15.57801,2.94428 z"
       id="path4258" />
    <path
       style="fill:#55cb9f;fill-opacity:1;stroke-width:1.52672"
       d="m 1515.9235,1125.8123 c -110.4732,-13.9109 -90.146,-12.8762 -151.6024,-13.3156 l -56.4825,-0.4038 17.4749,-8.141 c 25.3768,-11.8223 55.1506,-44.4334 98.3784,-96.9197 61.9597,-75.23028 120.6303,-121.73115 184.2991,-135.57609 13.2646,-2.88443 27.8424,-3.58823 54.3714,-3.63569 27.0921,-0.0485 34.364,1.49015 49.562,4.61753 34.6859,7.13749 64.2233,16.19194 111.9165,36.4797 40.4739,17.21683 62.9257,30.31383 96.4533,30.78744 l 13.8935,0.26052 -5.5738,10.23503 c -3.9983,7.34198 -18.3035,26.61841 -22.0696,30.77966 -8.7931,12.7969 -20.1244,24.8672 -28.05,33.7483 -3.6169,4.0479 -45.4267,48.8227 -99.1985,75.6734 -27.0033,17.7435 -64.4633,25.7481 -95.1253,31.8123 -20.9123,4.8722 -42.0563,5.8114 -86.7446,6.5401 -27.9854,0.4564 -62.973,-0.5815 -81.5024,-2.9421 z"
       id="path4260" />
    <path
       style="fill:#55cb9f;fill-opacity:1;stroke-width:1.52672"
       d="m 973.51713,1199.9631 c 11.8157,-0.6335 110.12347,-12.2232 134.48577,-16.8098 65.6921,-12.3676 142.0407,-38.6976 164.0676,-50.5496 l 31.4926,-16.9452 56.7002,-0.2811 c 95.4457,-0.4732 90.4219,8.2989 165.6906,14.5092 28.1618,2.3236 95.4327,1.8541 133.8244,-0.451 73.3709,-7.8802 124.3735,-32.1177 173.6989,-69.47 11.913,-9.0213 36.9888,-30.1159 44.2189,-38.2628 18.0578,-21.3273 36.112,-42.84086 49.5812,-62.971 l 13.003,-19.17615 18.5436,-3.35131 c 7.4761,-1.35112 27.881,-9.94164 41.0485,-16.09604 2.9906,-1.3978 -0.902,29.696 0.106,155.2315 l 0.7171,124.1663 -454.2471,0.5278 c -248.7595,0.289 -469.5938,0.3351 -488.9068,-0.1328 -25.2932,0.126 -58.77057,-0.052 -84.02447,0.062 z"
       id="path4262" />
    <path
       style="fill:#55cb9f;fill-opacity:1;stroke-width:0.033736"
       d=""
       id="path4274" />
  </g>
</svg>
