<svg width="56" height="56" viewBox="0 0 56 56" fill="none" xmlns="http://www.w3.org/2000/svg">
<path d="M53 25.7143V28.0143C52.9969 33.4054 51.2513 38.651 48.0233 42.9689C44.7954 47.2867 40.2582 50.4455 35.0884 51.9741C29.9186 53.5026 24.3931 53.3191 19.3362 51.4508C14.2792 49.5825 9.96164 46.1296 7.0274 41.607C4.09317 37.0844 2.69948 31.7345 3.05419 26.3551C3.40891 20.9757 5.49302 15.8551 8.9957 11.757C12.4984 7.65886 17.232 4.80277 22.4905 3.61467C27.749 2.42658 33.2507 2.97015 38.175 5.16431" fill="#767AD5"/>
<path d="M53 25.7143V28.0143C52.9969 33.4054 51.2513 38.651 48.0233 42.9689C44.7954 47.2867 40.2582 50.4455 35.0884 51.9741C29.9186 53.5026 24.3931 53.3191 19.3362 51.4508C14.2792 49.5825 9.96164 46.1296 7.0274 41.607C4.09317 37.0844 2.69948 31.7345 3.05419 26.3551C3.40891 20.9757 5.49302 15.8551 8.9957 11.757C12.4984 7.65886 17.232 4.80277 22.4905 3.61467C27.749 2.42658 33.2507 2.97015 38.175 5.16431" stroke="#30349C" stroke-width="5" stroke-linecap="round" stroke-linejoin="round"/>
<path d="M53 8.01465L28 33.0396L20.5 25.5396" fill="#767AD5"/>
<path d="M53 8.01465L28 33.0396L20.5 25.5396" stroke="#30349C" stroke-width="5" stroke-linecap="round" stroke-linejoin="round"/>
</svg>
