<svg width="72" height="77" viewBox="0 0 72 77" fill="none" xmlns="http://www.w3.org/2000/svg">
<path d="M24.617 76.4902H20.9294C20.7113 76.4902 20.5026 76.3938 20.3533 76.2239C20.2039 76.0532 20.1265 75.8241 20.1407 75.5917C21.3048 56.0432 26.2893 43.7228 38.7257 30.8099C29.2522 36.5598 20.0292 46.6835 18.4455 60.6005C18.4052 60.9555 18.1602 61.2454 17.8338 61.3223C17.5066 61.4017 17.1699 61.2496 16.9921 60.9479C10.031 49.0982 10.2705 38.371 17.7445 27.1874C22.0548 21.0411 28.2398 17.6544 33.6969 14.6658C40.2929 11.0543 45.9894 7.93469 47.2097 1.10889C47.2713 0.764899 47.5242 0.497817 47.8475 0.436118C48.1691 0.374419 48.4939 0.531625 48.6631 0.830824C57.2411 16.0249 64.3097 31.1125 56.6918 48.6199C50.6112 60.243 40.5228 65.6184 26.6647 64.6448C25.8665 68.2994 25.4547 71.9092 25.4081 75.656C25.4018 76.1191 25.0493 76.4902 24.617 76.4902ZM21.775 74.7998H23.8433C23.9452 70.9837 24.4186 67.2936 25.2856 63.5477C25.3789 63.1462 25.7235 62.8775 26.1147 62.9079C39.84 64.0624 49.3791 59.1349 55.2859 47.8516C62.2873 31.7531 56.4492 18.11 48.2687 3.41543C46.2431 9.69439 40.4833 12.8487 34.4177 16.1703C28.8539 19.2164 23.1012 22.3672 19.02 28.1856C12.4004 38.0913 11.806 47.6344 17.2197 58.0412C20.0127 42.2919 32.1756 31.5621 43.0036 26.6676C43.3609 26.5053 43.7758 26.6448 43.9813 26.9972C44.1875 27.3488 44.1243 27.8078 43.8327 28.0816C28.9732 41.9994 23.1383 54.3063 21.775 74.7998Z" fill="#54CB9C"/>
</svg>
