<svg width="504" height="123" viewBox="0 0 504 123" fill="none" xmlns="http://www.w3.org/2000/svg">
<path d="M115.24 74.02C115.2 72.74 115.18 71.44 115.18 70.12C115.18 68.84 115.18 67.56 115.18 66.28C115.18 60.4 115.3 54.7 115.54 49.18C115.78 43.62 116.06 38.32 116.38 33.28C114.78 33.68 113.44 34.06 112.36 34.42L110.02 24.82C111.98 24.22 114.04 23.7 116.2 23.26C118.4 22.78 120.54 22.4 122.62 22.12C124.74 21.8 126.68 21.58 128.44 21.46C130.24 21.3 131.72 21.22 132.88 21.22C134.12 21.22 135.64 21.32 137.44 21.52C139.28 21.72 141.16 22.14 143.08 22.78C145.04 23.38 146.86 24.3 148.54 25.54C150.22 26.78 151.58 28.46 152.62 30.58C153.7 32.66 154.24 35.28 154.24 38.44C154.24 41.72 153.52 44.46 152.08 46.66C150.64 48.82 148.74 50.56 146.38 51.88C144.02 53.16 141.42 54.08 138.58 54.64C135.74 55.2 132.94 55.48 130.18 55.48C128.42 55.48 126.74 55.4 125.14 55.24C125.1 57.16 125.08 59.06 125.08 60.94C125.08 63.5 125.1 65.88 125.14 68.08C125.18 70.24 125.26 72.14 125.38 73.78L115.24 74.02ZM132.58 31.06C131.54 31.06 130.46 31.1 129.34 31.18C128.26 31.26 127.18 31.36 126.1 31.48C125.9 33.6 125.74 35.9 125.62 38.38C125.5 40.86 125.4 43.4 125.32 46C126.8 46.12 128.34 46.18 129.94 46.18C139.54 46.18 144.34 43.34 144.34 37.66C144.34 35.42 143.38 33.76 141.46 32.68C139.54 31.6 136.58 31.06 132.58 31.06ZM159.476 74.68C159.636 71.36 159.756 68.04 159.836 64.72C159.916 61.4 159.956 58.12 159.956 54.88C159.916 51.92 159.856 49 159.776 46.12C159.736 43.2 159.636 40.38 159.476 37.66L169.556 37.36C169.596 38.84 169.656 40.36 169.736 41.92C171.016 40.32 172.496 39.04 174.176 38.08C175.896 37.08 177.856 36.58 180.056 36.58C180.896 36.58 181.976 36.7 183.296 36.94C184.616 37.18 185.956 37.64 187.316 38.32L186.176 48.46C185.176 47.86 184.096 47.44 182.936 47.2C181.816 46.92 180.876 46.78 180.116 46.78C177.556 46.78 175.376 47.94 173.576 50.26C171.816 52.54 170.616 55.72 169.976 59.8C169.976 62.6 169.936 65.28 169.856 67.84C169.816 70.36 169.716 72.64 169.556 74.68H159.476ZM207.595 74.92C204.395 74.92 201.595 74.4 199.195 73.36C196.835 72.32 194.875 70.9 193.315 69.1C191.755 67.26 190.595 65.16 189.835 62.8C189.075 60.44 188.695 57.96 188.695 55.36C188.695 52.72 189.155 50.28 190.075 48.04C191.035 45.76 192.335 43.78 193.975 42.1C195.655 40.42 197.615 39.12 199.855 38.2C202.095 37.24 204.535 36.76 207.175 36.76C209.935 36.76 212.495 37.24 214.855 38.2C217.215 39.16 219.275 40.5 221.035 42.22C222.795 43.94 224.155 45.96 225.115 48.28C226.115 50.6 226.615 53.12 226.615 55.84C226.615 61.88 224.955 66.58 221.635 69.94C218.315 73.26 213.635 74.92 207.595 74.92ZM207.535 65.2C210.455 65.2 212.675 64.38 214.195 62.74C215.755 61.1 216.535 58.74 216.535 55.66C216.535 52.9 215.695 50.68 214.015 49C212.335 47.32 210.135 46.48 207.415 46.48C205.775 46.48 204.275 46.92 202.915 47.8C201.555 48.64 200.455 49.78 199.615 51.22C198.815 52.62 198.415 54.18 198.415 55.9C198.415 57.42 198.715 58.9 199.315 60.34C199.955 61.78 200.955 62.96 202.315 63.88C203.675 64.76 205.415 65.2 207.535 65.2ZM254.058 74.8C250.698 74.8 247.578 74.3 244.698 73.3C241.818 72.3 239.218 70.98 236.898 69.34C234.618 67.66 232.618 65.86 230.898 63.94L236.898 54.4C237.418 55.76 238.278 57.06 239.478 58.3C240.718 59.54 242.158 60.64 243.798 61.6C245.438 62.56 247.158 63.32 248.958 63.88C250.798 64.44 252.598 64.72 254.358 64.72C256.998 64.72 259.098 64.3 260.658 63.46C262.218 62.58 262.998 61.42 262.998 59.98C262.998 58.86 262.638 57.94 261.918 57.22C261.238 56.46 260.438 55.86 259.518 55.42C258.638 54.94 257.878 54.52 257.238 54.16C256.758 53.92 255.878 53.56 254.598 53.08C253.358 52.56 251.958 52 250.398 51.4C248.838 50.8 247.358 50.24 245.958 49.72C244.558 49.16 243.458 48.7 242.658 48.34C236.698 45.66 233.718 41.52 233.718 35.92C233.718 34.12 234.058 32.36 234.738 30.64C235.458 28.88 236.538 27.28 237.978 25.84C239.418 24.4 241.258 23.26 243.498 22.42C245.738 21.58 248.418 21.16 251.538 21.16C254.938 21.16 257.958 21.54 260.598 22.3C263.238 23.02 265.558 23.94 267.558 25.06C269.598 26.18 271.338 27.36 272.778 28.6L267.258 37.84C262.818 33.44 257.798 31.24 252.198 31.24C249.838 31.24 248.038 31.5 246.798 32.02C245.598 32.5 244.778 33.06 244.338 33.7C243.938 34.3 243.738 34.8 243.738 35.2C243.738 35.88 243.978 36.56 244.458 37.24C244.978 37.92 246.118 38.64 247.878 39.4C248.598 39.72 249.558 40.12 250.758 40.6C251.998 41.04 253.358 41.54 254.838 42.1C256.358 42.66 257.838 43.26 259.277 43.9C260.757 44.5 262.098 45.12 263.298 45.76C264.738 46.56 266.218 47.54 267.738 48.7C269.258 49.86 270.538 51.3 271.578 53.02C272.658 54.7 273.198 56.76 273.198 59.2C273.198 60.68 272.918 62.32 272.358 64.12C271.798 65.88 270.818 67.58 269.418 69.22C268.018 70.86 266.078 72.2 263.598 73.24C261.118 74.28 257.938 74.8 254.058 74.8ZM296.781 74.8C292.941 74.8 289.561 74.04 286.641 72.52C283.761 71.04 281.501 68.96 279.861 66.28C278.261 63.6 277.461 60.5 277.461 56.98C277.461 54.86 277.821 52.64 278.541 50.32C279.261 47.96 280.421 45.76 282.021 43.72C283.621 41.68 285.721 40.02 288.321 38.74C290.961 37.46 294.161 36.82 297.921 36.82C300.641 36.82 302.921 37.12 304.761 37.72C306.641 38.32 308.161 39.1 309.321 40.06C310.521 41.02 311.421 42.04 312.021 43.12C312.661 44.2 313.081 45.24 313.281 46.24C313.521 47.2 313.641 48 313.641 48.64C313.641 52.52 312.001 55.52 308.721 57.64C305.481 59.72 300.881 60.76 294.921 60.76C293.561 60.76 292.261 60.7 291.021 60.58C289.821 60.46 288.701 60.32 287.661 60.16C288.421 62.16 289.681 63.64 291.441 64.6C293.201 65.52 295.021 65.98 296.901 65.98C299.621 65.98 302.021 65.5 304.101 64.54C306.181 63.54 308.141 62.02 309.981 59.98L315.321 67.66C314.041 68.7 312.601 69.78 311.001 70.9C309.441 72.02 307.521 72.94 305.241 73.66C302.961 74.42 300.141 74.8 296.781 74.8ZM298.101 45.82C295.741 45.82 293.661 46.42 291.861 47.62C290.061 48.82 288.741 50.4 287.901 52.36C288.901 52.52 289.881 52.66 290.841 52.78C291.841 52.86 292.821 52.9 293.781 52.9C294.661 52.9 295.661 52.82 296.781 52.66C297.941 52.5 299.061 52.26 300.141 51.94C301.261 51.62 302.181 51.22 302.901 50.74C303.621 50.22 303.981 49.62 303.981 48.94C303.981 48.62 303.821 48.22 303.501 47.74C303.181 47.26 302.601 46.82 301.761 46.42C300.921 46.02 299.701 45.82 298.101 45.82ZM338.09 74.8C334.25 74.8 330.87 74.04 327.95 72.52C325.07 71.04 322.81 68.96 321.17 66.28C319.57 63.6 318.77 60.5 318.77 56.98C318.77 54.86 319.13 52.64 319.85 50.32C320.57 47.96 321.73 45.76 323.33 43.72C324.93 41.68 327.03 40.02 329.63 38.74C332.27 37.46 335.47 36.82 339.23 36.82C341.95 36.82 344.23 37.12 346.07 37.72C347.95 38.32 349.47 39.1 350.63 40.06C351.83 41.02 352.73 42.04 353.33 43.12C353.97 44.2 354.39 45.24 354.59 46.24C354.83 47.2 354.95 48 354.95 48.64C354.95 52.52 353.31 55.52 350.03 57.64C346.79 59.72 342.19 60.76 336.23 60.76C334.87 60.76 333.57 60.7 332.33 60.58C331.13 60.46 330.01 60.32 328.97 60.16C329.73 62.16 330.99 63.64 332.75 64.6C334.51 65.52 336.33 65.98 338.21 65.98C340.93 65.98 343.33 65.5 345.41 64.54C347.49 63.54 349.45 62.02 351.29 59.98L356.63 67.66C355.35 68.7 353.91 69.78 352.31 70.9C350.75 72.02 348.83 72.94 346.55 73.66C344.27 74.42 341.45 74.8 338.09 74.8ZM339.41 45.82C337.05 45.82 334.97 46.42 333.17 47.62C331.37 48.82 330.05 50.4 329.21 52.36C330.21 52.52 331.19 52.66 332.15 52.78C333.15 52.86 334.13 52.9 335.09 52.9C335.97 52.9 336.97 52.82 338.09 52.66C339.25 52.5 340.37 52.26 341.45 51.94C342.57 51.62 343.49 51.22 344.21 50.74C344.93 50.22 345.29 49.62 345.29 48.94C345.29 48.62 345.13 48.22 344.81 47.74C344.49 47.26 343.91 46.82 343.07 46.42C342.23 46.02 341.01 45.82 339.41 45.82ZM376.398 74.74C374.318 74.74 372.278 74.38 370.278 73.66C368.318 72.94 366.538 71.82 364.938 70.3C363.378 68.82 362.138 66.96 361.218 64.72C360.298 62.44 359.838 59.78 359.838 56.74C359.838 53.3 360.358 50.34 361.398 47.86C362.478 45.34 363.898 43.28 365.658 41.68C367.418 40.04 369.378 38.82 371.538 38.02C373.698 37.22 375.858 36.82 378.018 36.82C379.298 36.82 380.518 36.92 381.678 37.12C382.838 37.28 383.918 37.52 384.918 37.84C385.038 34.92 385.178 31.98 385.338 29.02C385.538 26.06 385.758 23.14 385.998 20.26L396.078 20.92C395.758 24.24 395.478 27.82 395.238 31.66C394.998 35.46 394.818 39.34 394.698 43.3C394.618 47.26 394.578 51.12 394.578 54.88C394.578 58.4 394.618 61.76 394.698 64.96C394.818 68.12 394.958 71 395.118 73.6L384.738 74.38C384.698 73.62 384.678 72.88 384.678 72.16C383.518 72.92 382.238 73.54 380.838 74.02C379.478 74.5 377.998 74.74 376.398 74.74ZM369.498 56.2C369.498 58.28 369.898 59.92 370.698 61.12C371.498 62.28 372.478 63.1 373.638 63.58C374.798 64.06 375.918 64.3 376.998 64.3C378.278 64.3 379.558 64.02 380.838 63.46C382.118 62.9 383.318 61.92 384.438 60.52C384.438 60.04 384.438 59.58 384.438 59.14C384.438 55.9 384.478 52.58 384.558 49.18C382.678 47.54 380.638 46.72 378.438 46.72C377.518 46.72 376.538 46.86 375.498 47.14C374.458 47.42 373.478 47.92 372.558 48.64C371.678 49.32 370.938 50.28 370.338 51.52C369.778 52.72 369.498 54.28 369.498 56.2Z" fill="#54CB9C"/>
<path d="M8.75 117.85C8.63333 116.4 8.55 114.992 8.5 113.625C8.46667 112.258 8.45 110.967 8.45 109.75C8.45 107.733 8.49167 105.925 8.575 104.325C8.65833 102.708 8.74167 101.317 8.825 100.15C7.39167 100.233 6 100.342 4.65 100.475C3.3 100.608 2.05 100.783 0.9 101L0.95 96.825C2.9 96.475 4.9 96.225 6.95 96.075C9 95.9083 11.05 95.825 13.1 95.825C14.5667 95.825 15.9667 95.8583 17.3 95.925C18.65 95.9917 19.9417 96.0917 21.175 96.225L21.15 100.55C19.9833 100.367 18.7167 100.242 17.35 100.175C16 100.092 14.6167 100.05 13.2 100.05C13.1167 101.183 13.0417 102.45 12.975 103.85C12.9083 105.233 12.875 106.717 12.875 108.3C12.875 109.717 12.9083 111.208 12.975 112.775C13.0583 114.342 13.1583 115.992 13.275 117.725L8.75 117.85ZM23.3203 117.725C23.3203 116.708 23.3203 115.408 23.3203 113.825C23.337 112.225 23.3536 110.45 23.3703 108.5C23.4036 106.55 23.4453 104.5 23.4953 102.35C23.562 100.2 23.637 98.05 23.7203 95.9L27.9703 95.875C27.9036 96.825 27.837 97.9833 27.7703 99.35C27.7036 100.717 27.6453 102.183 27.5953 103.75C28.7453 102.683 30.062 102.15 31.5453 102.15C32.562 102.15 33.4036 102.333 34.0703 102.7C34.7536 103.067 35.3036 103.55 35.7203 104.15C36.137 104.733 36.4536 105.375 36.6703 106.075C36.887 106.775 37.037 107.467 37.1203 108.15C37.2036 108.817 37.2453 109.408 37.2453 109.925C37.2453 111.025 37.237 112.117 37.2203 113.2C37.2036 114.283 37.187 115.233 37.1703 116.05C37.1703 116.867 37.1703 117.442 37.1703 117.775L32.7953 117.8C32.862 117.15 32.9036 116.4 32.9203 115.55C32.9536 114.7 32.9703 113.825 32.9703 112.925C32.987 112.008 32.9953 111.142 32.9953 110.325C32.9953 107.625 32.362 106.275 31.0953 106.275C30.712 106.275 30.287 106.375 29.8203 106.575C29.3536 106.775 28.9036 107.092 28.4703 107.525C28.0536 107.958 27.7203 108.533 27.4703 109.25C27.4536 110.35 27.4453 111.417 27.4453 112.45C27.4453 113.4 27.4536 114.292 27.4703 115.125C27.5036 115.942 27.5286 116.767 27.5453 117.6L23.3203 117.725ZM47.251 118C45.651 118 44.2426 117.683 43.026 117.05C41.826 116.433 40.8843 115.567 40.201 114.45C39.5343 113.333 39.201 112.042 39.201 110.575C39.201 109.692 39.351 108.767 39.651 107.8C39.951 106.817 40.4343 105.9 41.101 105.05C41.7676 104.2 42.6426 103.508 43.726 102.975C44.826 102.442 46.1593 102.175 47.726 102.175C48.8593 102.175 49.8093 102.3 50.576 102.55C51.3593 102.8 51.9926 103.125 52.476 103.525C52.976 103.925 53.351 104.35 53.601 104.8C53.8676 105.25 54.0426 105.683 54.126 106.1C54.226 106.5 54.276 106.833 54.276 107.1C54.276 108.717 53.5926 109.967 52.226 110.85C50.876 111.717 48.9593 112.15 46.476 112.15C45.9093 112.15 45.3676 112.125 44.851 112.075C44.351 112.025 43.8843 111.967 43.451 111.9C43.7676 112.733 44.2926 113.35 45.026 113.75C45.7593 114.133 46.5176 114.325 47.301 114.325C48.4343 114.325 49.4343 114.125 50.301 113.725C51.1676 113.308 51.9843 112.675 52.751 111.825L54.976 115.025C54.4426 115.458 53.8426 115.908 53.176 116.375C52.526 116.842 51.726 117.225 50.776 117.525C49.826 117.842 48.651 118 47.251 118ZM47.801 105.925C46.8176 105.925 45.951 106.175 45.201 106.675C44.451 107.175 43.901 107.833 43.551 108.65C43.9676 108.717 44.376 108.775 44.776 108.825C45.1926 108.858 45.601 108.875 46.001 108.875C46.3676 108.875 46.7843 108.842 47.251 108.775C47.7343 108.708 48.201 108.608 48.651 108.475C49.1176 108.342 49.501 108.175 49.801 107.975C50.101 107.758 50.251 107.508 50.251 107.225C50.251 107.092 50.1843 106.925 50.051 106.725C49.9176 106.525 49.676 106.342 49.326 106.175C48.976 106.008 48.4676 105.925 47.801 105.925ZM72.1008 118C70.7008 118 69.4008 117.792 68.2008 117.375C67.0008 116.958 65.9174 116.408 64.9508 115.725C64.0008 115.025 63.1674 114.275 62.4508 113.475L64.9508 109.5C65.1674 110.067 65.5258 110.608 66.0258 111.125C66.5424 111.642 67.1424 112.1 67.8258 112.5C68.5091 112.9 69.2258 113.217 69.9758 113.45C70.7424 113.683 71.4924 113.8 72.2258 113.8C73.3258 113.8 74.2008 113.625 74.8508 113.275C75.5008 112.908 75.8258 112.425 75.8258 111.825C75.8258 111.358 75.6758 110.975 75.3758 110.675C75.0924 110.358 74.7591 110.108 74.3758 109.925C74.0091 109.725 73.6924 109.55 73.4258 109.4C73.2258 109.3 72.8591 109.15 72.3258 108.95C71.8091 108.733 71.2258 108.5 70.5758 108.25C69.9258 108 69.3091 107.767 68.7258 107.55C68.1424 107.317 67.6841 107.125 67.3508 106.975C64.8674 105.858 63.6258 104.133 63.6258 101.8C63.6258 101.05 63.7674 100.317 64.0508 99.6C64.3508 98.8667 64.8008 98.2 65.4008 97.6C66.0008 97 66.7674 96.525 67.7008 96.175C68.6341 95.825 69.7508 95.65 71.0508 95.65C72.4674 95.65 73.7258 95.8083 74.8258 96.125C75.9258 96.425 76.8924 96.8083 77.7258 97.275C78.5758 97.7417 79.3008 98.2333 79.9008 98.75L77.6008 102.6C75.7508 100.767 73.6591 99.85 71.3258 99.85C70.3424 99.85 69.5924 99.9583 69.0758 100.175C68.5758 100.375 68.2341 100.608 68.0508 100.875C67.8841 101.125 67.8008 101.333 67.8008 101.5C67.8008 101.783 67.9008 102.067 68.1008 102.35C68.3174 102.633 68.7924 102.933 69.5258 103.25C69.8258 103.383 70.2258 103.55 70.7258 103.75C71.2424 103.933 71.8091 104.142 72.4258 104.375C73.0591 104.608 73.6758 104.858 74.2758 105.125C74.8924 105.375 75.4508 105.633 75.9508 105.9C76.5508 106.233 77.1674 106.642 77.8008 107.125C78.4341 107.608 78.9674 108.208 79.4008 108.925C79.8508 109.625 80.0758 110.483 80.0758 111.5C80.0758 112.117 79.9591 112.8 79.7258 113.55C79.4924 114.283 79.0841 114.992 78.5008 115.675C77.9174 116.358 77.1091 116.917 76.0758 117.35C75.0424 117.783 73.7174 118 72.1008 118ZM82.3523 117.95C82.3357 117.7 82.319 117.283 82.3023 116.7C82.2857 116.133 82.269 115.45 82.2523 114.65C82.2357 113.85 82.2273 112.992 82.2273 112.075C82.2273 111.142 82.2273 110.208 82.2273 109.275C82.2273 108.242 82.2273 107.258 82.2273 106.325C82.244 105.392 82.2523 104.583 82.2523 103.9C82.269 103.217 82.2773 102.725 82.2773 102.425L86.5023 102.35C86.469 102.817 86.444 103.383 86.4273 104.05C86.8607 103.467 87.3607 103.008 87.9273 102.675C88.494 102.342 89.144 102.175 89.8773 102.175C90.7607 102.175 91.4857 102.433 92.0523 102.95C92.6357 103.467 93.1107 104.142 93.4773 104.975C94.6773 103.108 96.1523 102.175 97.9023 102.175C98.8857 102.175 99.694 102.392 100.327 102.825C100.977 103.242 101.486 103.808 101.852 104.525C102.219 105.242 102.486 106.05 102.652 106.95C102.836 107.85 102.952 108.775 103.002 109.725C103.052 110.675 103.077 111.592 103.077 112.475C103.077 113.525 103.061 114.483 103.027 115.35C102.994 116.217 102.986 117.042 103.002 117.825H98.6773C98.6773 117.425 98.6773 116.917 98.6773 116.3C98.6773 115.7 98.6773 115.092 98.6773 114.475C98.694 113.842 98.7023 113.3 98.7023 112.85C98.7023 112.383 98.7023 112.108 98.7023 112.025C98.7023 111.025 98.6773 110.083 98.6273 109.2C98.5773 108.317 98.4523 107.6 98.2523 107.05C98.0523 106.5 97.7273 106.225 97.2773 106.225C96.844 106.225 96.4607 106.433 96.1273 106.85C95.794 107.267 95.494 107.808 95.2273 108.475C94.9773 109.142 94.7607 109.85 94.5773 110.6C94.6107 111.25 94.6357 111.9 94.6523 112.55C94.669 113.183 94.6773 113.8 94.6773 114.4C94.6773 115.083 94.669 115.675 94.6523 116.175C94.6523 116.692 94.6523 117.242 94.6523 117.825H90.4523C90.4523 116.475 90.444 115.283 90.4273 114.25C90.4107 113.217 90.3773 112.217 90.3273 111.25C90.244 109.517 90.0607 108.25 89.7773 107.45C89.5107 106.633 89.1357 106.225 88.6523 106.225C88.119 106.225 87.669 106.55 87.3023 107.2C86.9357 107.833 86.6357 108.608 86.4023 109.525C86.419 110.858 86.4523 112.25 86.5023 113.7C86.5523 115.15 86.619 116.55 86.7023 117.9L82.3523 117.95ZM111.528 117.975C110.278 117.975 109.144 117.65 108.128 117C107.111 116.367 106.303 115.508 105.703 114.425C105.119 113.325 104.828 112.1 104.828 110.75C104.828 109.483 105.061 108.342 105.528 107.325C105.994 106.292 106.628 105.408 107.428 104.675C108.244 103.942 109.169 103.383 110.203 103C111.236 102.6 112.319 102.4 113.453 102.4C114.403 102.4 115.336 102.533 116.253 102.8C116.319 102.45 116.378 102.1 116.428 101.75L120.703 102.475C120.586 102.792 120.469 103.267 120.353 103.9C120.236 104.533 120.136 105.242 120.053 106.025C119.986 106.808 119.928 107.592 119.878 108.375C119.828 109.158 119.803 109.867 119.803 110.5C119.803 111.017 119.836 111.525 119.903 112.025C119.986 112.508 120.153 112.908 120.403 113.225C120.653 113.525 121.036 113.675 121.553 113.675H121.903L121.278 118.025C120.178 118.025 119.269 117.833 118.553 117.45C117.836 117.083 117.261 116.583 116.828 115.95C116.111 116.75 115.294 117.283 114.378 117.55C113.461 117.833 112.511 117.975 111.528 117.975ZM108.928 111.25C109.011 112.05 109.336 112.692 109.903 113.175C110.486 113.642 111.219 113.875 112.103 113.875C112.953 113.875 113.661 113.65 114.228 113.2C114.794 112.733 115.261 112.1 115.628 111.3C115.611 111.033 115.603 110.758 115.603 110.475C115.603 109.892 115.619 109.292 115.653 108.675C115.686 108.058 115.728 107.45 115.778 106.85C115.078 106.583 114.344 106.45 113.578 106.45C112.678 106.45 111.869 106.633 111.153 107C110.453 107.35 109.903 107.842 109.503 108.475C109.103 109.108 108.903 109.842 108.903 110.675C108.903 110.775 108.903 110.875 108.903 110.975C108.903 111.075 108.911 111.167 108.928 111.25ZM123.366 117.95C123.432 116.567 123.482 115.183 123.516 113.8C123.549 112.417 123.566 111.05 123.566 109.7C123.549 108.467 123.524 107.25 123.491 106.05C123.474 104.833 123.432 103.658 123.366 102.525L127.566 102.4C127.582 103.017 127.607 103.65 127.641 104.3C128.174 103.633 128.791 103.1 129.491 102.7C130.207 102.283 131.024 102.075 131.941 102.075C132.291 102.075 132.741 102.125 133.291 102.225C133.841 102.325 134.399 102.517 134.966 102.8L134.491 107.025C134.074 106.775 133.624 106.6 133.141 106.5C132.674 106.383 132.282 106.325 131.966 106.325C130.899 106.325 129.991 106.808 129.241 107.775C128.507 108.725 128.007 110.05 127.741 111.75C127.741 112.917 127.724 114.033 127.691 115.1C127.674 116.15 127.632 117.1 127.566 117.95H123.366ZM143.49 117.975C142.49 117.975 141.698 117.758 141.115 117.325C140.532 116.908 140.107 116.325 139.84 115.575C139.573 114.825 139.398 113.967 139.315 113C139.248 112.033 139.215 111.017 139.215 109.95C139.215 108.85 139.257 107.708 139.34 106.525C138.223 106.675 137.148 106.867 136.115 107.1L135.34 103.175C136.723 102.808 138.198 102.542 139.765 102.375C139.882 101.525 140.007 100.633 140.14 99.7C140.273 98.75 140.423 97.75 140.59 96.7L144.89 97.075C144.69 97.9417 144.515 98.8083 144.365 99.675C144.215 100.525 144.082 101.35 143.965 102.15C144.898 102.15 145.773 102.175 146.59 102.225C147.423 102.258 148.19 102.325 148.89 102.425L148.39 106.35C147.807 106.283 147.198 106.242 146.565 106.225C145.948 106.192 145.323 106.175 144.69 106.175C144.307 106.175 143.923 106.183 143.54 106.2C143.44 107.417 143.373 108.458 143.34 109.325C143.323 110.192 143.315 110.808 143.315 111.175C143.315 112.092 143.365 112.75 143.465 113.15C143.582 113.55 143.765 113.75 144.015 113.75C144.298 113.75 144.615 113.658 144.965 113.475C145.315 113.275 145.657 113.008 145.99 112.675C146.34 112.342 146.632 111.983 146.865 111.6L148.79 115.625C147.14 117.192 145.373 117.975 143.49 117.975ZM166.226 118C164.192 118 162.426 117.55 160.926 116.65C159.426 115.767 158.267 114.517 157.451 112.9C156.634 111.283 156.226 109.375 156.226 107.175C156.226 106.342 156.326 105.417 156.526 104.4C156.742 103.367 157.084 102.342 157.551 101.325C158.017 100.292 158.642 99.35 159.426 98.5C160.209 97.65 161.167 96.9667 162.301 96.45C163.434 95.9167 164.767 95.65 166.301 95.65C167.617 95.65 168.767 95.8167 169.751 96.15C170.734 96.4667 171.584 96.875 172.301 97.375C173.017 97.8583 173.609 98.3667 174.076 98.9C174.559 99.4333 174.942 99.925 175.226 100.375C175.509 100.808 175.717 101.125 175.851 101.325L172.226 104.1C171.859 103.417 171.426 102.75 170.926 102.1C170.426 101.433 169.809 100.883 169.076 100.45C168.342 100.017 167.434 99.8 166.351 99.8C165.234 99.8 164.309 100.05 163.576 100.55C162.842 101.05 162.259 101.683 161.826 102.45C161.409 103.217 161.117 104.033 160.951 104.9C160.784 105.75 160.701 106.542 160.701 107.275C160.701 108.058 160.784 108.833 160.951 109.6C161.117 110.367 161.401 111.067 161.801 111.7C162.217 112.333 162.767 112.842 163.451 113.225C164.151 113.592 165.026 113.775 166.076 113.775C167.242 113.775 168.192 113.567 168.926 113.15C169.676 112.733 170.301 112.15 170.801 111.4C171.301 110.633 171.767 109.742 172.201 108.725L176.301 110.575C175.567 112.092 174.742 113.408 173.826 114.525C172.909 115.642 171.834 116.5 170.601 117.1C169.367 117.7 167.909 118 166.226 118ZM184.941 117.975C183.691 117.975 182.557 117.65 181.541 117C180.524 116.367 179.716 115.508 179.116 114.425C178.532 113.325 178.241 112.1 178.241 110.75C178.241 109.483 178.474 108.342 178.941 107.325C179.407 106.292 180.041 105.408 180.841 104.675C181.657 103.942 182.582 103.383 183.616 103C184.649 102.6 185.732 102.4 186.866 102.4C187.816 102.4 188.749 102.533 189.666 102.8C189.732 102.45 189.791 102.1 189.841 101.75L194.116 102.475C193.999 102.792 193.882 103.267 193.766 103.9C193.649 104.533 193.549 105.242 193.466 106.025C193.399 106.808 193.341 107.592 193.291 108.375C193.241 109.158 193.216 109.867 193.216 110.5C193.216 111.017 193.249 111.525 193.316 112.025C193.399 112.508 193.566 112.908 193.816 113.225C194.066 113.525 194.449 113.675 194.966 113.675H195.316L194.691 118.025C193.591 118.025 192.682 117.833 191.966 117.45C191.249 117.083 190.674 116.583 190.241 115.95C189.524 116.75 188.707 117.283 187.791 117.55C186.874 117.833 185.924 117.975 184.941 117.975ZM182.341 111.25C182.424 112.05 182.749 112.692 183.316 113.175C183.899 113.642 184.632 113.875 185.516 113.875C186.366 113.875 187.074 113.65 187.641 113.2C188.207 112.733 188.674 112.1 189.041 111.3C189.024 111.033 189.016 110.758 189.016 110.475C189.016 109.892 189.032 109.292 189.066 108.675C189.099 108.058 189.141 107.45 189.191 106.85C188.491 106.583 187.757 106.45 186.991 106.45C186.091 106.45 185.282 106.633 184.566 107C183.866 107.35 183.316 107.842 182.916 108.475C182.516 109.108 182.316 109.842 182.316 110.675C182.316 110.775 182.316 110.875 182.316 110.975C182.316 111.075 182.324 111.167 182.341 111.25ZM201.754 117.975C200.837 117.975 200.079 117.775 199.479 117.375C198.895 116.992 198.429 116.458 198.079 115.775C197.745 115.092 197.495 114.308 197.329 113.425C197.179 112.542 197.079 111.6 197.029 110.6C196.995 109.583 196.979 108.567 196.979 107.55C196.979 106.667 197.004 105.7 197.054 104.65C197.104 103.583 197.162 102.508 197.229 101.425C197.312 100.325 197.395 99.2917 197.479 98.325C197.579 97.3583 197.67 96.5167 197.754 95.8L202.279 95.85C202.145 96.7 202.02 97.6667 201.904 98.75C201.787 99.8167 201.687 100.9 201.604 102C201.537 103.1 201.479 104.117 201.429 105.05C201.395 105.983 201.379 106.725 201.379 107.275C201.379 108.792 201.404 109.983 201.454 110.85C201.52 111.717 201.612 112.333 201.729 112.7C201.862 113.05 202.037 113.225 202.254 113.225C202.537 113.225 202.845 113.05 203.179 112.7C203.512 112.333 203.837 111.925 204.154 111.475L206.279 115.7C205.762 116.267 205.145 116.783 204.429 117.25C203.712 117.733 202.82 117.975 201.754 117.975ZM215.977 118C214.377 118 212.968 117.683 211.752 117.05C210.552 116.433 209.61 115.567 208.927 114.45C208.26 113.333 207.927 112.042 207.927 110.575C207.927 109.692 208.077 108.767 208.377 107.8C208.677 106.817 209.16 105.9 209.827 105.05C210.493 104.2 211.368 103.508 212.452 102.975C213.552 102.442 214.885 102.175 216.452 102.175C217.585 102.175 218.535 102.3 219.302 102.55C220.085 102.8 220.718 103.125 221.202 103.525C221.702 103.925 222.077 104.35 222.327 104.8C222.593 105.25 222.768 105.683 222.852 106.1C222.952 106.5 223.002 106.833 223.002 107.1C223.002 108.717 222.318 109.967 220.952 110.85C219.602 111.717 217.685 112.15 215.202 112.15C214.635 112.15 214.093 112.125 213.577 112.075C213.077 112.025 212.61 111.967 212.177 111.9C212.493 112.733 213.018 113.35 213.752 113.75C214.485 114.133 215.243 114.325 216.027 114.325C217.16 114.325 218.16 114.125 219.027 113.725C219.893 113.308 220.71 112.675 221.477 111.825L223.702 115.025C223.168 115.458 222.568 115.908 221.902 116.375C221.252 116.842 220.452 117.225 219.502 117.525C218.552 117.842 217.377 118 215.977 118ZM216.527 105.925C215.543 105.925 214.677 106.175 213.927 106.675C213.177 107.175 212.627 107.833 212.277 108.65C212.693 108.717 213.102 108.775 213.502 108.825C213.918 108.858 214.327 108.875 214.727 108.875C215.093 108.875 215.51 108.842 215.977 108.775C216.46 108.708 216.927 108.608 217.377 108.475C217.843 108.342 218.227 108.175 218.527 107.975C218.827 107.758 218.977 107.508 218.977 107.225C218.977 107.092 218.91 106.925 218.777 106.725C218.643 106.525 218.402 106.342 218.052 106.175C217.702 106.008 217.193 105.925 216.527 105.925ZM225.838 117.8C225.788 116.333 225.747 114.975 225.713 113.725C225.697 112.475 225.688 111.242 225.688 110.025C225.688 108.808 225.697 107.592 225.713 106.375C225.747 105.142 225.797 103.825 225.863 102.425H230.088C230.022 103.175 229.963 103.933 229.913 104.7C230.48 103.983 231.155 103.392 231.938 102.925C232.722 102.442 233.647 102.2 234.713 102.2C235.763 102.2 236.622 102.375 237.288 102.725C237.972 103.075 238.505 103.558 238.888 104.175C239.288 104.792 239.572 105.5 239.738 106.3C239.922 107.083 240.038 107.933 240.088 108.85C240.138 109.75 240.163 110.658 240.163 111.575C240.163 112.575 240.147 113.533 240.113 114.45C240.08 115.367 240.047 116.133 240.013 116.75C239.98 117.367 239.955 117.733 239.938 117.85H235.738C235.772 117.167 235.805 116.442 235.838 115.675C235.872 114.892 235.905 114.125 235.938 113.375C235.972 112.608 235.988 111.917 235.988 111.3C235.988 107.75 235.413 105.975 234.263 105.975C233.313 105.975 232.447 106.392 231.663 107.225C230.897 108.042 230.255 109.075 229.738 110.325C229.738 110.492 229.738 110.658 229.738 110.825C229.738 111.625 229.738 112.458 229.738 113.325C229.755 114.175 229.772 114.992 229.788 115.775C229.822 116.542 229.847 117.208 229.863 117.775L225.838 117.8ZM248.906 117.975C248.04 117.975 247.19 117.825 246.356 117.525C245.54 117.225 244.798 116.758 244.131 116.125C243.481 115.508 242.965 114.733 242.581 113.8C242.198 112.85 242.006 111.742 242.006 110.475C242.006 109.042 242.223 107.808 242.656 106.775C243.106 105.725 243.698 104.867 244.431 104.2C245.165 103.517 245.981 103.008 246.881 102.675C247.781 102.342 248.681 102.175 249.581 102.175C250.115 102.175 250.623 102.217 251.106 102.3C251.59 102.367 252.04 102.467 252.456 102.6C252.506 101.383 252.565 100.158 252.631 98.925C252.715 97.6917 252.806 96.475 252.906 95.275L257.106 95.55C256.973 96.9333 256.856 98.425 256.756 100.025C256.656 101.608 256.581 103.225 256.531 104.875C256.498 106.525 256.481 108.133 256.481 109.7C256.481 111.167 256.498 112.567 256.531 113.9C256.581 115.217 256.64 116.417 256.706 117.5L252.381 117.825C252.365 117.508 252.356 117.2 252.356 116.9C251.873 117.217 251.34 117.475 250.756 117.675C250.19 117.875 249.573 117.975 248.906 117.975ZM246.031 110.25C246.031 111.117 246.198 111.8 246.531 112.3C246.865 112.783 247.273 113.125 247.756 113.325C248.24 113.525 248.706 113.625 249.156 113.625C249.69 113.625 250.223 113.508 250.756 113.275C251.29 113.042 251.79 112.633 252.256 112.05C252.256 111.85 252.256 111.658 252.256 111.475C252.256 110.125 252.273 108.742 252.306 107.325C251.523 106.642 250.673 106.3 249.756 106.3C249.373 106.3 248.965 106.358 248.531 106.475C248.098 106.592 247.69 106.8 247.306 107.1C246.94 107.383 246.631 107.783 246.381 108.3C246.148 108.8 246.031 109.45 246.031 110.25ZM265.385 117.975C264.135 117.975 263.002 117.65 261.985 117C260.968 116.367 260.16 115.508 259.56 114.425C258.977 113.325 258.685 112.1 258.685 110.75C258.685 109.483 258.918 108.342 259.385 107.325C259.852 106.292 260.485 105.408 261.285 104.675C262.102 103.942 263.027 103.383 264.06 103C265.093 102.6 266.177 102.4 267.31 102.4C268.26 102.4 269.193 102.533 270.11 102.8C270.177 102.45 270.235 102.1 270.285 101.75L274.56 102.475C274.443 102.792 274.327 103.267 274.21 103.9C274.093 104.533 273.993 105.242 273.91 106.025C273.843 106.808 273.785 107.592 273.735 108.375C273.685 109.158 273.66 109.867 273.66 110.5C273.66 111.017 273.693 111.525 273.76 112.025C273.843 112.508 274.01 112.908 274.26 113.225C274.51 113.525 274.893 113.675 275.41 113.675H275.76L275.135 118.025C274.035 118.025 273.127 117.833 272.41 117.45C271.693 117.083 271.118 116.583 270.685 115.95C269.968 116.75 269.152 117.283 268.235 117.55C267.318 117.833 266.368 117.975 265.385 117.975ZM262.785 111.25C262.868 112.05 263.193 112.692 263.76 113.175C264.343 113.642 265.077 113.875 265.96 113.875C266.81 113.875 267.518 113.65 268.085 113.2C268.652 112.733 269.118 112.1 269.485 111.3C269.468 111.033 269.46 110.758 269.46 110.475C269.46 109.892 269.477 109.292 269.51 108.675C269.543 108.058 269.585 107.45 269.635 106.85C268.935 106.583 268.202 106.45 267.435 106.45C266.535 106.45 265.727 106.633 265.01 107C264.31 107.35 263.76 107.842 263.36 108.475C262.96 109.108 262.76 109.842 262.76 110.675C262.76 110.775 262.76 110.875 262.76 110.975C262.76 111.075 262.768 111.167 262.785 111.25ZM277.223 117.95C277.29 116.567 277.34 115.183 277.373 113.8C277.406 112.417 277.423 111.05 277.423 109.7C277.406 108.467 277.381 107.25 277.348 106.05C277.331 104.833 277.29 103.658 277.223 102.525L281.423 102.4C281.44 103.017 281.465 103.65 281.498 104.3C282.031 103.633 282.648 103.1 283.348 102.7C284.065 102.283 284.881 102.075 285.798 102.075C286.148 102.075 286.598 102.125 287.148 102.225C287.698 102.325 288.256 102.517 288.823 102.8L288.348 107.025C287.931 106.775 287.481 106.6 286.998 106.5C286.531 106.383 286.14 106.325 285.823 106.325C284.756 106.325 283.848 106.808 283.098 107.775C282.365 108.725 281.865 110.05 281.598 111.75C281.598 112.917 281.581 114.033 281.548 115.1C281.531 116.15 281.49 117.1 281.423 117.95H277.223ZM301.835 117.975C300.585 117.975 299.452 117.65 298.435 117C297.419 116.367 296.61 115.508 296.01 114.425C295.427 113.325 295.135 112.1 295.135 110.75C295.135 109.483 295.369 108.342 295.835 107.325C296.302 106.292 296.935 105.408 297.735 104.675C298.552 103.942 299.477 103.383 300.51 103C301.544 102.6 302.627 102.4 303.76 102.4C304.71 102.4 305.644 102.533 306.56 102.8C306.627 102.45 306.685 102.1 306.735 101.75L311.01 102.475C310.894 102.792 310.777 103.267 310.66 103.9C310.544 104.533 310.444 105.242 310.36 106.025C310.294 106.808 310.235 107.592 310.185 108.375C310.135 109.158 310.11 109.867 310.11 110.5C310.11 111.017 310.144 111.525 310.21 112.025C310.294 112.508 310.46 112.908 310.71 113.225C310.96 113.525 311.344 113.675 311.86 113.675H312.21L311.585 118.025C310.485 118.025 309.577 117.833 308.86 117.45C308.144 117.083 307.569 116.583 307.135 115.95C306.419 116.75 305.602 117.283 304.685 117.55C303.769 117.833 302.819 117.975 301.835 117.975ZM299.235 111.25C299.319 112.05 299.644 112.692 300.21 113.175C300.794 113.642 301.527 113.875 302.41 113.875C303.26 113.875 303.969 113.65 304.535 113.2C305.102 112.733 305.569 112.1 305.935 111.3C305.919 111.033 305.91 110.758 305.91 110.475C305.91 109.892 305.927 109.292 305.96 108.675C305.994 108.058 306.035 107.45 306.085 106.85C305.385 106.583 304.652 106.45 303.885 106.45C302.985 106.45 302.177 106.633 301.46 107C300.76 107.35 300.21 107.842 299.81 108.475C299.41 109.108 299.21 109.842 299.21 110.675C299.21 110.775 299.21 110.875 299.21 110.975C299.21 111.075 299.219 111.167 299.235 111.25ZM313.973 117.8C313.923 116.333 313.882 114.975 313.848 113.725C313.832 112.475 313.823 111.242 313.823 110.025C313.823 108.808 313.832 107.592 313.848 106.375C313.882 105.142 313.932 103.825 313.998 102.425H318.223C318.157 103.175 318.098 103.933 318.048 104.7C318.615 103.983 319.29 103.392 320.073 102.925C320.857 102.442 321.782 102.2 322.848 102.2C323.898 102.2 324.757 102.375 325.423 102.725C326.107 103.075 326.64 103.558 327.023 104.175C327.423 104.792 327.707 105.5 327.873 106.3C328.057 107.083 328.173 107.933 328.223 108.85C328.273 109.75 328.298 110.658 328.298 111.575C328.298 112.575 328.282 113.533 328.248 114.45C328.215 115.367 328.182 116.133 328.148 116.75C328.115 117.367 328.09 117.733 328.073 117.85H323.873C323.907 117.167 323.94 116.442 323.973 115.675C324.007 114.892 324.04 114.125 324.073 113.375C324.107 112.608 324.123 111.917 324.123 111.3C324.123 107.75 323.548 105.975 322.398 105.975C321.448 105.975 320.582 106.392 319.798 107.225C319.032 108.042 318.39 109.075 317.873 110.325C317.873 110.492 317.873 110.658 317.873 110.825C317.873 111.625 317.873 112.458 317.873 113.325C317.89 114.175 317.907 114.992 317.923 115.775C317.957 116.542 317.982 117.208 317.998 117.775L313.973 117.8ZM337.041 117.975C336.174 117.975 335.324 117.825 334.491 117.525C333.674 117.225 332.933 116.758 332.266 116.125C331.616 115.508 331.099 114.733 330.716 113.8C330.333 112.85 330.141 111.742 330.141 110.475C330.141 109.042 330.358 107.808 330.791 106.775C331.241 105.725 331.833 104.867 332.566 104.2C333.299 103.517 334.116 103.008 335.016 102.675C335.916 102.342 336.816 102.175 337.716 102.175C338.249 102.175 338.758 102.217 339.241 102.3C339.724 102.367 340.174 102.467 340.591 102.6C340.641 101.383 340.699 100.158 340.766 98.925C340.849 97.6917 340.941 96.475 341.041 95.275L345.241 95.55C345.108 96.9333 344.991 98.425 344.891 100.025C344.791 101.608 344.716 103.225 344.666 104.875C344.633 106.525 344.616 108.133 344.616 109.7C344.616 111.167 344.633 112.567 344.666 113.9C344.716 115.217 344.774 116.417 344.841 117.5L340.516 117.825C340.499 117.508 340.491 117.2 340.491 116.9C340.008 117.217 339.474 117.475 338.891 117.675C338.324 117.875 337.708 117.975 337.041 117.975ZM334.166 110.25C334.166 111.117 334.333 111.8 334.666 112.3C334.999 112.783 335.408 113.125 335.891 113.325C336.374 113.525 336.841 113.625 337.291 113.625C337.824 113.625 338.358 113.508 338.891 113.275C339.424 113.042 339.924 112.633 340.391 112.05C340.391 111.85 340.391 111.658 340.391 111.475C340.391 110.125 340.408 108.742 340.441 107.325C339.658 106.642 338.808 106.3 337.891 106.3C337.508 106.3 337.099 106.358 336.666 106.475C336.233 106.592 335.824 106.8 335.441 107.1C335.074 107.383 334.766 107.783 334.516 108.3C334.283 108.8 334.166 109.45 334.166 110.25ZM360.508 117.85C360.391 116.4 360.308 114.992 360.258 113.625C360.224 112.258 360.208 110.967 360.208 109.75C360.208 107.733 360.249 105.925 360.333 104.325C360.416 102.708 360.499 101.317 360.583 100.15C359.149 100.233 357.758 100.342 356.408 100.475C355.058 100.608 353.808 100.783 352.658 101L352.708 96.825C354.658 96.475 356.658 96.225 358.708 96.075C360.758 95.9083 362.808 95.825 364.858 95.825C366.324 95.825 367.724 95.8583 369.058 95.925C370.408 95.9917 371.699 96.0917 372.933 96.225L372.908 100.55C371.741 100.367 370.474 100.242 369.108 100.175C367.758 100.092 366.374 100.05 364.958 100.05C364.874 101.183 364.799 102.45 364.733 103.85C364.666 105.233 364.633 106.717 364.633 108.3C364.633 109.717 364.666 111.208 364.733 112.775C364.816 114.342 364.916 115.992 365.033 117.725L360.508 117.85ZM382.453 118.05C381.12 118.05 379.953 117.833 378.953 117.4C377.97 116.967 377.153 116.375 376.503 115.625C375.853 114.858 375.37 113.983 375.053 113C374.736 112.017 374.578 110.983 374.578 109.9C374.578 108.8 374.77 107.783 375.153 106.85C375.553 105.9 376.095 105.075 376.778 104.375C377.478 103.675 378.295 103.133 379.228 102.75C380.161 102.35 381.178 102.15 382.278 102.15C383.428 102.15 384.495 102.35 385.478 102.75C386.461 103.15 387.32 103.708 388.053 104.425C388.786 105.142 389.353 105.983 389.753 106.95C390.17 107.917 390.378 108.967 390.378 110.1C390.378 112.617 389.686 114.575 388.303 115.975C386.92 117.358 384.97 118.05 382.453 118.05ZM382.428 114C383.645 114 384.57 113.658 385.203 112.975C385.853 112.292 386.178 111.308 386.178 110.025C386.178 108.875 385.828 107.95 385.128 107.25C384.428 106.55 383.511 106.2 382.378 106.2C381.695 106.2 381.07 106.383 380.503 106.75C379.936 107.1 379.478 107.575 379.128 108.175C378.795 108.758 378.628 109.408 378.628 110.125C378.628 110.758 378.753 111.375 379.003 111.975C379.27 112.575 379.686 113.067 380.253 113.45C380.82 113.817 381.545 114 382.428 114ZM392.463 111.75L392.388 108.2C393.054 108.133 393.888 108.083 394.888 108.05C395.888 108.017 396.896 108 397.913 108C398.629 108 399.304 108.008 399.938 108.025C400.588 108.042 401.146 108.067 401.613 108.1L401.563 111.6C401.146 111.6 400.696 111.6 400.213 111.6C399.729 111.583 399.221 111.575 398.688 111.575C397.621 111.575 396.538 111.592 395.438 111.625C394.338 111.642 393.346 111.683 392.463 111.75ZM408.081 117.975L403.881 117.6L404.806 100.425C404.373 100.525 403.973 100.642 403.606 100.775L402.856 96.525C403.74 96.3417 404.831 96.15 406.131 95.95C407.431 95.75 408.773 95.65 410.156 95.65C411.223 95.65 412.306 95.7667 413.406 96C414.506 96.2167 415.556 96.5833 416.556 97.1C417.573 97.6 418.473 98.275 419.256 99.125C420.056 99.975 420.681 101.017 421.131 102.25C421.598 103.483 421.831 104.942 421.831 106.625C421.831 108.992 421.448 111.017 420.681 112.7C419.931 114.367 418.831 115.642 417.381 116.525C415.948 117.408 414.215 117.85 412.181 117.85C410.831 117.85 409.498 117.6 408.181 117.1C408.148 117.433 408.115 117.725 408.081 117.975ZM409.981 99.85C409.748 99.85 409.506 99.85 409.256 99.85C409.09 102.95 408.94 105.592 408.806 107.775C408.673 109.942 408.556 111.75 408.456 113.2C408.956 113.367 409.506 113.517 410.106 113.65C410.723 113.767 411.365 113.825 412.031 113.825C413.381 113.825 414.465 113.483 415.281 112.8C416.115 112.117 416.715 111.217 417.081 110.1C417.448 108.967 417.631 107.742 417.631 106.425C417.631 105.375 417.473 104.483 417.156 103.75C416.84 103.017 416.423 102.408 415.906 101.925C415.406 101.442 414.856 101.067 414.256 100.8C413.656 100.517 413.065 100.308 412.481 100.175C411.915 100.042 411.406 99.9583 410.956 99.925C410.506 99.875 410.181 99.85 409.981 99.85ZM431.403 118.05C430.07 118.05 428.903 117.833 427.903 117.4C426.92 116.967 426.103 116.375 425.453 115.625C424.803 114.858 424.32 113.983 424.003 113C423.687 112.017 423.528 110.983 423.528 109.9C423.528 108.8 423.72 107.783 424.103 106.85C424.503 105.9 425.045 105.075 425.728 104.375C426.428 103.675 427.245 103.133 428.178 102.75C429.112 102.35 430.128 102.15 431.228 102.15C432.378 102.15 433.445 102.35 434.428 102.75C435.412 103.15 436.27 103.708 437.003 104.425C437.737 105.142 438.303 105.983 438.703 106.95C439.12 107.917 439.328 108.967 439.328 110.1C439.328 112.617 438.637 114.575 437.253 115.975C435.87 117.358 433.92 118.05 431.403 118.05ZM431.378 114C432.595 114 433.52 113.658 434.153 112.975C434.803 112.292 435.128 111.308 435.128 110.025C435.128 108.875 434.778 107.95 434.078 107.25C433.378 106.55 432.462 106.2 431.328 106.2C430.645 106.2 430.02 106.383 429.453 106.75C428.887 107.1 428.428 107.575 428.078 108.175C427.745 108.758 427.578 109.408 427.578 110.125C427.578 110.758 427.703 111.375 427.953 111.975C428.22 112.575 428.637 113.067 429.203 113.45C429.77 113.817 430.495 114 431.378 114ZM454.851 117.825C453.201 117.825 451.892 117.683 450.926 117.4C449.959 117.117 449.242 116.717 448.776 116.2C448.309 115.7 448.001 115.108 447.851 114.425C447.717 113.725 447.651 112.975 447.651 112.175C447.651 110.842 447.684 109.317 447.751 107.6C447.834 105.883 447.934 104.042 448.051 102.075C448.184 100.092 448.326 98.0417 448.476 95.925L453.026 96.375C452.859 97.6583 452.709 98.975 452.576 100.325C452.459 101.658 452.359 102.958 452.276 104.225C452.192 105.492 452.126 106.642 452.076 107.675C452.026 108.708 451.984 109.575 451.951 110.275C451.934 110.958 451.926 111.4 451.926 111.6C451.926 112.183 451.992 112.625 452.126 112.925C452.259 113.208 452.526 113.4 452.926 113.5C453.326 113.6 453.909 113.65 454.676 113.65C455.642 113.65 456.734 113.592 457.951 113.475C459.167 113.342 460.401 113.15 461.651 112.9C462.901 112.65 464.042 112.35 465.076 112L466.051 116.3C464.917 116.583 463.692 116.842 462.376 117.075C461.076 117.308 459.776 117.492 458.476 117.625C457.176 117.758 455.967 117.825 454.851 117.825ZM467.678 99.85C467.678 99.7 467.669 99.55 467.653 99.4C467.653 99.2333 467.653 99.05 467.653 98.85C467.653 98.3167 467.669 97.75 467.703 97.15C467.736 96.55 467.769 96.0417 467.803 95.625L472.253 95.7C472.203 96.2667 472.144 96.9083 472.078 97.625C472.028 98.3417 471.994 99.0833 471.978 99.85H467.678ZM467.578 117.75C467.528 116.717 467.494 115.617 467.478 114.45C467.461 113.267 467.453 112.083 467.453 110.9C467.453 109.35 467.469 107.842 467.503 106.375C467.536 104.908 467.578 103.575 467.628 102.375L471.928 102.35C471.861 103.117 471.819 104.067 471.803 105.2C471.786 106.317 471.778 107.492 471.778 108.725C471.778 109.942 471.786 111.142 471.803 112.325C471.819 113.508 471.836 114.583 471.853 115.55C471.886 116.5 471.911 117.233 471.928 117.75H467.578ZM481.695 118.075C480.561 118.075 479.511 117.942 478.545 117.675C477.578 117.408 476.703 117.067 475.92 116.65C475.136 116.233 474.436 115.792 473.82 115.325L476.07 111.7C476.77 112.35 477.445 112.85 478.095 113.2C478.745 113.55 479.42 113.792 480.12 113.925C480.836 114.058 481.611 114.125 482.445 114.125C483.161 114.125 483.736 114.033 484.17 113.85C484.603 113.65 484.82 113.4 484.82 113.1C484.82 112.85 484.611 112.658 484.195 112.525C483.778 112.375 483.245 112.25 482.595 112.15C481.945 112.033 481.261 111.892 480.545 111.725C479.528 111.458 478.578 111.15 477.695 110.8C476.811 110.45 476.095 109.975 475.545 109.375C475.011 108.775 474.745 107.975 474.745 106.975C474.745 106.175 474.936 105.475 475.32 104.875C475.703 104.258 476.211 103.75 476.845 103.35C477.495 102.933 478.228 102.625 479.045 102.425C479.861 102.225 480.703 102.125 481.57 102.125C483.07 102.125 484.361 102.308 485.445 102.675C486.545 103.025 487.595 103.492 488.595 104.075L486.32 107.525C485.82 107.175 485.245 106.875 484.595 106.625C483.961 106.358 483.32 106.158 482.67 106.025C482.036 105.875 481.445 105.8 480.895 105.8C480.295 105.8 479.82 105.892 479.47 106.075C479.136 106.258 478.97 106.517 478.97 106.85C478.97 107.05 479.178 107.242 479.595 107.425C480.028 107.592 480.845 107.817 482.045 108.1C482.761 108.267 483.52 108.442 484.32 108.625C485.12 108.792 485.87 109.033 486.57 109.35C487.286 109.65 487.861 110.092 488.295 110.675C488.745 111.242 488.97 112 488.97 112.95C488.97 114.55 488.328 115.8 487.045 116.7C485.761 117.617 483.978 118.075 481.695 118.075ZM498.397 117.975C497.397 117.975 496.606 117.758 496.022 117.325C495.439 116.908 495.014 116.325 494.747 115.575C494.481 114.825 494.306 113.967 494.222 113C494.156 112.033 494.122 111.017 494.122 109.95C494.122 108.85 494.164 107.708 494.247 106.525C493.131 106.675 492.056 106.867 491.022 107.1L490.247 103.175C491.631 102.808 493.106 102.542 494.672 102.375C494.789 101.525 494.914 100.633 495.047 99.7C495.181 98.75 495.331 97.75 495.497 96.7L499.797 97.075C499.597 97.9417 499.422 98.8083 499.272 99.675C499.122 100.525 498.989 101.35 498.872 102.15C499.806 102.15 500.681 102.175 501.497 102.225C502.331 102.258 503.097 102.325 503.797 102.425L503.297 106.35C502.714 106.283 502.106 106.242 501.472 106.225C500.856 106.192 500.231 106.175 499.597 106.175C499.214 106.175 498.831 106.183 498.447 106.2C498.347 107.417 498.281 108.458 498.247 109.325C498.231 110.192 498.222 110.808 498.222 111.175C498.222 112.092 498.272 112.75 498.372 113.15C498.489 113.55 498.672 113.75 498.922 113.75C499.206 113.75 499.522 113.658 499.872 113.475C500.222 113.275 500.564 113.008 500.897 112.675C501.247 112.342 501.539 111.983 501.772 111.6L503.697 115.625C502.047 117.192 500.281 117.975 498.397 117.975Z" fill="#309C71"/>
</svg>
