<svg width="245" height="58" viewBox="0 0 245 58" fill="none" xmlns="http://www.w3.org/2000/svg">
<path d="M5.16 48.68C5.13333 47.8267 5.12 46.96 5.12 46.08C5.12 45.2267 5.12 44.3733 5.12 43.52C5.12 39.6 5.2 35.8 5.36 32.12C5.52 28.4133 5.70667 24.88 5.92 21.52C4.85333 21.7867 3.96 22.04 3.24 22.28L1.68 15.88C2.98667 15.48 4.36 15.1333 5.8 14.84C7.26667 14.52 8.69333 14.2667 10.08 14.08C11.4933 13.8667 12.7867 13.72 13.96 13.64C15.16 13.5333 16.1467 13.48 16.92 13.48C17.7467 13.48 18.76 13.5467 19.96 13.68C21.1867 13.8133 22.44 14.0933 23.72 14.52C25.0267 14.92 26.24 15.5333 27.36 16.36C28.48 17.1867 29.3867 18.3067 30.08 19.72C30.8 21.1067 31.16 22.8533 31.16 24.96C31.16 27.1467 30.68 28.9733 29.72 30.44C28.76 31.88 27.4933 33.04 25.92 33.92C24.3467 34.7733 22.6133 35.3867 20.72 35.76C18.8267 36.1333 16.96 36.32 15.12 36.32C13.9467 36.32 12.8267 36.2667 11.76 36.16C11.7333 37.44 11.72 38.7067 11.72 39.96C11.72 41.6667 11.7333 43.2533 11.76 44.72C11.7867 46.16 11.84 47.4267 11.92 48.52L5.16 48.68ZM16.72 20.04C16.0267 20.04 15.3067 20.0667 14.56 20.12C13.84 20.1733 13.12 20.24 12.4 20.32C12.2667 21.7333 12.16 23.2667 12.08 24.92C12 26.5733 11.9333 28.2667 11.88 30C12.8667 30.08 13.8933 30.12 14.96 30.12C21.36 30.12 24.56 28.2267 24.56 24.44C24.56 22.9467 23.92 21.84 22.64 21.12C21.36 20.4 19.3867 20.04 16.72 20.04ZM34.6506 49.12C34.7573 46.9067 34.8373 44.6933 34.8906 42.48C34.944 40.2667 34.9706 38.08 34.9706 35.92C34.944 33.9467 34.904 32 34.8506 30.08C34.824 28.1333 34.7573 26.2533 34.6506 24.44L41.3706 24.24C41.3973 25.2267 41.4373 26.24 41.4906 27.28C42.344 26.2133 43.3306 25.36 44.4506 24.72C45.5973 24.0533 46.904 23.72 48.3706 23.72C48.9306 23.72 49.6506 23.8 50.5306 23.96C51.4106 24.12 52.304 24.4267 53.2106 24.88L52.4506 31.64C51.784 31.24 51.064 30.96 50.2906 30.8C49.544 30.6133 48.9173 30.52 48.4106 30.52C46.704 30.52 45.2506 31.2933 44.0506 32.84C42.8773 34.36 42.0773 36.48 41.6506 39.2C41.6506 41.0667 41.624 42.8533 41.5706 44.56C41.544 46.24 41.4773 47.76 41.3706 49.12H34.6506ZM66.7297 49.28C64.5964 49.28 62.7297 48.9333 61.1297 48.24C59.5564 47.5467 58.2497 46.6 57.2097 45.4C56.1697 44.1733 55.3964 42.7733 54.8897 41.2C54.383 39.6267 54.1297 37.9733 54.1297 36.24C54.1297 34.48 54.4364 32.8533 55.0497 31.36C55.6897 29.84 56.5564 28.52 57.6497 27.4C58.7697 26.28 60.0764 25.4133 61.5697 24.8C63.063 24.16 64.6897 23.84 66.4497 23.84C68.2897 23.84 69.9964 24.16 71.5697 24.8C73.143 25.44 74.5164 26.3333 75.6897 27.48C76.863 28.6267 77.7697 29.9733 78.4097 31.52C79.0764 33.0667 79.4097 34.7467 79.4097 36.56C79.4097 40.5867 78.303 43.72 76.0897 45.96C73.8764 48.1733 70.7564 49.28 66.7297 49.28ZM66.6897 42.8C68.6364 42.8 70.1164 42.2533 71.1297 41.16C72.1697 40.0667 72.6897 38.4933 72.6897 36.44C72.6897 34.6 72.1297 33.12 71.0097 32C69.8897 30.88 68.423 30.32 66.6097 30.32C65.5164 30.32 64.5164 30.6133 63.6097 31.2C62.703 31.76 61.9697 32.52 61.4097 33.48C60.8764 34.4133 60.6097 35.4533 60.6097 36.6C60.6097 37.6133 60.8097 38.6 61.2097 39.56C61.6364 40.52 62.303 41.3067 63.2097 41.92C64.1164 42.5067 65.2764 42.8 66.6897 42.8ZM97.705 49.2C95.465 49.2 93.385 48.8667 91.465 48.2C89.545 47.5333 87.8117 46.6533 86.265 45.56C84.745 44.44 83.4117 43.24 82.265 41.96L86.265 35.6C86.6117 36.5067 87.185 37.3733 87.985 38.2C88.8117 39.0267 89.7717 39.76 90.865 40.4C91.9583 41.04 93.105 41.5467 94.305 41.92C95.5317 42.2933 96.7317 42.48 97.905 42.48C99.665 42.48 101.065 42.2 102.105 41.64C103.145 41.0533 103.665 40.28 103.665 39.32C103.665 38.5733 103.425 37.96 102.945 37.48C102.492 36.9733 101.958 36.5733 101.345 36.28C100.758 35.96 100.252 35.68 99.825 35.44C99.505 35.28 98.9183 35.04 98.065 34.72C97.2383 34.3733 96.305 34 95.265 33.6C94.225 33.2 93.2383 32.8267 92.305 32.48C91.3717 32.1067 90.6383 31.8 90.105 31.56C86.1317 29.7733 84.145 27.0133 84.145 23.28C84.145 22.08 84.3717 20.9067 84.825 19.76C85.305 18.5867 86.025 17.52 86.985 16.56C87.945 15.6 89.1717 14.84 90.665 14.28C92.1583 13.72 93.945 13.44 96.025 13.44C98.2917 13.44 100.305 13.6933 102.065 14.2C103.825 14.68 105.372 15.2933 106.705 16.04C108.065 16.7867 109.225 17.5733 110.185 18.4L106.505 24.56C103.545 21.6267 100.198 20.16 96.465 20.16C94.8917 20.16 93.6917 20.3333 92.865 20.68C92.065 21 91.5183 21.3733 91.225 21.8C90.9583 22.2 90.825 22.5333 90.825 22.8C90.825 23.2533 90.985 23.7067 91.305 24.16C91.6517 24.6133 92.4117 25.0933 93.585 25.6C94.065 25.8133 94.705 26.08 95.505 26.4C96.3317 26.6933 97.2383 27.0267 98.225 27.4C99.2383 27.7733 100.225 28.1733 101.185 28.6C102.172 29 103.065 29.4133 103.865 29.84C104.825 30.3733 105.812 31.0267 106.825 31.8C107.838 32.5733 108.692 33.5333 109.385 34.68C110.105 35.8 110.465 37.1733 110.465 38.8C110.465 39.7867 110.278 40.88 109.905 42.08C109.532 43.2533 108.878 44.3867 107.945 45.48C107.012 46.5733 105.718 47.4667 104.065 48.16C102.412 48.8533 100.292 49.2 97.705 49.2ZM126.188 49.2C123.628 49.2 121.374 48.6933 119.428 47.68C117.508 46.6933 116.001 45.3067 114.908 43.52C113.841 41.7333 113.308 39.6667 113.308 37.32C113.308 35.9067 113.548 34.4267 114.028 32.88C114.508 31.3067 115.281 29.84 116.348 28.48C117.414 27.12 118.814 26.0133 120.548 25.16C122.308 24.3067 124.441 23.88 126.948 23.88C128.761 23.88 130.281 24.08 131.508 24.48C132.761 24.88 133.774 25.4 134.548 26.04C135.348 26.68 135.948 27.36 136.348 28.08C136.774 28.8 137.054 29.4933 137.188 30.16C137.348 30.8 137.428 31.3333 137.428 31.76C137.428 34.3467 136.334 36.3467 134.148 37.76C131.988 39.1467 128.921 39.84 124.948 39.84C124.041 39.84 123.174 39.8 122.348 39.72C121.548 39.64 120.801 39.5467 120.108 39.44C120.614 40.7733 121.454 41.76 122.628 42.4C123.801 43.0133 125.014 43.32 126.268 43.32C128.081 43.32 129.681 43 131.068 42.36C132.454 41.6933 133.761 40.68 134.988 39.32L138.548 44.44C137.694 45.1333 136.734 45.8533 135.668 46.6C134.628 47.3467 133.348 47.96 131.828 48.44C130.308 48.9467 128.428 49.2 126.188 49.2ZM127.068 29.88C125.494 29.88 124.108 30.28 122.908 31.08C121.708 31.88 120.828 32.9333 120.268 34.24C120.934 34.3467 121.588 34.44 122.228 34.52C122.894 34.5733 123.548 34.6 124.188 34.6C124.774 34.6 125.441 34.5467 126.188 34.44C126.961 34.3333 127.708 34.1733 128.428 33.96C129.174 33.7467 129.788 33.48 130.268 33.16C130.748 32.8133 130.988 32.4133 130.988 31.96C130.988 31.7467 130.881 31.48 130.668 31.16C130.454 30.84 130.068 30.5467 129.508 30.28C128.948 30.0133 128.134 29.88 127.068 29.88ZM153.727 49.2C151.167 49.2 148.913 48.6933 146.967 47.68C145.047 46.6933 143.54 45.3067 142.447 43.52C141.38 41.7333 140.847 39.6667 140.847 37.32C140.847 35.9067 141.087 34.4267 141.567 32.88C142.047 31.3067 142.82 29.84 143.887 28.48C144.953 27.12 146.353 26.0133 148.087 25.16C149.847 24.3067 151.98 23.88 154.487 23.88C156.3 23.88 157.82 24.08 159.047 24.48C160.3 24.88 161.313 25.4 162.087 26.04C162.887 26.68 163.487 27.36 163.887 28.08C164.313 28.8 164.593 29.4933 164.727 30.16C164.887 30.8 164.967 31.3333 164.967 31.76C164.967 34.3467 163.873 36.3467 161.687 37.76C159.527 39.1467 156.46 39.84 152.487 39.84C151.58 39.84 150.713 39.8 149.887 39.72C149.087 39.64 148.34 39.5467 147.647 39.44C148.153 40.7733 148.993 41.76 150.167 42.4C151.34 43.0133 152.553 43.32 153.807 43.32C155.62 43.32 157.22 43 158.607 42.36C159.993 41.6933 161.3 40.68 162.527 39.32L166.087 44.44C165.233 45.1333 164.273 45.8533 163.207 46.6C162.167 47.3467 160.887 47.96 159.367 48.44C157.847 48.9467 155.967 49.2 153.727 49.2ZM154.607 29.88C153.033 29.88 151.647 30.28 150.447 31.08C149.247 31.88 148.367 32.9333 147.807 34.24C148.473 34.3467 149.127 34.44 149.767 34.52C150.433 34.5733 151.087 34.6 151.727 34.6C152.313 34.6 152.98 34.5467 153.727 34.44C154.5 34.3333 155.247 34.1733 155.967 33.96C156.713 33.7467 157.327 33.48 157.807 33.16C158.287 32.8133 158.527 32.4133 158.527 31.96C158.527 31.7467 158.42 31.48 158.207 31.16C157.993 30.84 157.607 30.5467 157.047 30.28C156.487 30.0133 155.673 29.88 154.607 29.88ZM179.266 49.16C177.879 49.16 176.519 48.92 175.186 48.44C173.879 47.96 172.692 47.2133 171.626 46.2C170.586 45.2133 169.759 43.9733 169.146 42.48C168.532 40.96 168.226 39.1867 168.226 37.16C168.226 34.8667 168.572 32.8933 169.266 31.24C169.986 29.56 170.932 28.1867 172.106 27.12C173.279 26.0267 174.586 25.2133 176.026 24.68C177.466 24.1467 178.906 23.88 180.346 23.88C181.199 23.88 182.012 23.9467 182.786 24.08C183.559 24.1867 184.279 24.3467 184.946 24.56C185.026 22.6133 185.119 20.6533 185.226 18.68C185.359 16.7067 185.506 14.76 185.666 12.84L192.386 13.28C192.172 15.4933 191.986 17.88 191.826 20.44C191.666 22.9733 191.546 25.56 191.466 28.2C191.412 30.84 191.386 33.4133 191.386 35.92C191.386 38.2667 191.412 40.5067 191.466 42.64C191.546 44.7467 191.639 46.6667 191.746 48.4L184.826 48.92C184.799 48.4133 184.786 47.92 184.786 47.44C184.012 47.9467 183.159 48.36 182.226 48.68C181.319 49 180.332 49.16 179.266 49.16ZM174.666 36.8C174.666 38.1867 174.932 39.28 175.466 40.08C175.999 40.8533 176.652 41.4 177.426 41.72C178.199 42.04 178.946 42.2 179.666 42.2C180.519 42.2 181.372 42.0133 182.226 41.64C183.079 41.2667 183.879 40.6133 184.626 39.68C184.626 39.36 184.626 39.0533 184.626 38.76C184.626 36.6 184.652 34.3867 184.706 32.12C183.452 31.0267 182.092 30.48 180.626 30.48C180.012 30.48 179.359 30.5733 178.666 30.76C177.972 30.9467 177.319 31.28 176.706 31.76C176.119 32.2133 175.626 32.8533 175.226 33.68C174.852 34.48 174.666 35.52 174.666 36.8Z" fill="#309C71"/>
<path d="M211.437 48.676H208.825C208.671 48.676 208.523 48.6147 208.417 48.5066C208.311 48.3979 208.256 48.2522 208.266 48.1043C209.091 35.6643 212.622 27.824 221.431 19.6067C214.72 23.2657 208.187 29.7081 207.066 38.5644C207.037 38.7903 206.864 38.9748 206.632 39.0237C206.401 39.0743 206.162 38.9775 206.036 38.7855C201.105 31.2448 201.275 24.4184 206.569 17.3015C209.622 13.3903 214.003 11.2351 217.869 9.33324C222.541 7.035 226.576 5.04979 227.44 0.706103C227.484 0.487198 227.663 0.317237 227.892 0.277973C228.12 0.23871 228.35 0.338751 228.47 0.52915C234.546 10.1981 239.553 19.7993 234.157 30.9404C229.85 38.3369 222.704 41.7576 212.888 41.138C212.322 43.4637 212.031 45.7608 211.997 48.1451C211.993 48.4399 211.743 48.676 211.437 48.676ZM209.424 47.6003H210.889C210.961 45.1719 211.297 42.8236 211.911 40.4399C211.977 40.1844 212.221 40.0134 212.498 40.0327C222.22 40.7674 228.977 37.6318 233.161 30.4514C238.12 20.207 233.985 11.525 228.19 2.1739C226.756 6.1696 222.676 8.17686 218.379 10.2906C214.438 12.229 210.363 14.2341 207.473 17.9367C202.784 24.2403 202.363 30.3132 206.197 36.9358C208.176 26.9135 216.791 20.0854 224.461 16.9707C224.714 16.8675 225.008 16.9562 225.153 17.1805C225.3 17.4042 225.255 17.6963 225.048 17.8706C214.523 26.7274 210.39 34.559 209.424 47.6003Z" fill="#309C71"/>
</svg>
